<?xml version="1.0" standalone="no"?>
<!DOCTYPE svg PUBLIC "-//W3C//DTD SVG 20010904//EN"
 "http://www.w3.org/TR/2001/REC-SVG-20010904/DTD/svg10.dtd">
<svg version="1.0" xmlns="http://www.w3.org/2000/svg"
 width="400.000000pt" height="400.000000pt" viewBox="0 0 400.000000 400.000000"
 preserveAspectRatio="xMidYMid meet">
<metadata>
Created by potrace 1.11, written by Peter Selinger 2001-2013
</metadata>
<g transform="translate(0.000000,400.000000) scale(0.100000,-0.100000)"
fill="#000000" stroke="none">
<path d="M260 3984 c-77 -21 -153 -74 -195 -137 -69 -105 -65 10 -65 -1847 0
-1857 -4 -1742 65 -1847 21 -31 57 -67 88 -88 105 -69 -10 -65 1847 -65 1857
0 1742 -4 1847 65 31 21 67 57 88 88 69 105 65 -10 65 1847 0 1857 4 1742 -65
1847 -21 31 -57 67 -88 88 -105 69 11 65 -1852 64 -1445 0 -1688 -2 -1735 -15z
m2107 -880 c92 -69 92 -219 0 -288 -28 -21 -34 -21 -795 -24 -523 -2 -779 0
-804 8 -128 37 -141 250 -18 313 33 16 87 17 812 15 772 -3 777 -3 805 -24z
m908 -16 c70 -76 72 -180 5 -252 l-39 -41 -261 0 -262 0 -33 37 c-66 72 -71
177 -12 244 17 20 40 40 51 45 12 4 133 7 269 6 l249 -2 33 -37z m-1989 -617
c67 -41 92 -154 54 -238 -36 -79 -50 -83 -330 -83 -280 0 -290 3 -329 82 -40
84 -16 197 51 238 31 19 50 20 278 20 223 0 248 -2 276 -19z m1960 -7 c104
-77 104 -211 0 -288 -27 -21 -38 -21 -769 -24 -408 -2 -761 0 -784 3 -135 19
-183 197 -80 293 13 13 37 27 53 32 16 5 372 8 791 7 752 -2 762 -2 789 -23z
m-886 -636 c50 -34 72 -71 78 -127 5 -56 -9 -102 -42 -139 -48 -54 -16 -52
-849 -52 l-774 0 -33 23 c-50 33 -72 70 -78 126 -7 77 20 134 83 172 29 18 68
19 806 19 l776 0 33 -22z m896 2 c41 -26 74 -93 74 -150 0 -57 -33 -124 -74
-150 -31 -19 -49 -20 -276 -20 -227 0 -245 1 -276 20 -68 43 -93 154 -53 236
39 81 50 84 328 84 228 0 246 -1 277 -20z m-1969 -640 c96 -58 96 -242 0 -300
-29 -18 -51 -20 -277 -20 -278 0 -291 3 -330 79 -41 82 -16 199 53 241 29 18
51 20 277 20 226 0 248 -2 277 -20z m1964 -3 c41 -27 79 -98 79 -147 0 -49
-38 -120 -79 -147 l-34 -23 -777 0 -777 0 -34 23 c-41 27 -79 98 -79 147 0 49
38 120 79 147 l34 23 777 0 777 0 34 -23z"/>
</g>
</svg>
